<?xml version="1.0" encoding="utf-8"?>
<!-- Generator: Adobe Illustrator 19.0.0, SVG Export Plug-In . SVG Version: 6.00 Build 0)  -->
<svg version="1.1" id="图层_1" xmlns="http://www.w3.org/2000/svg" xmlns:xlink="http://www.w3.org/1999/xlink" x="0px" y="0px"
	 viewBox="-32 0 310 64" style="enable-background:new -32 0 310 64;" xml:space="preserve">
<style type="text/css">
	.st0{fill:#FFFFFF;}
	.st1{fill:url(#XMLID_5_);}
	.st2{fill:url(#XMLID_7_);}
	.st3{fill:#323234;}
</style>
<g>
	<g id="XMLID_611_">
		<g id="XMLID_734_">
			<path id="XMLID_14_" class="st0" d="M24.1,64h-48c-4.4,0-8-3.6-8-8V8c0-4.4,3.6-8,8-8h48c4.4,0,8,3.6,8,8v48
				C32.1,60.4,28.5,64,24.1,64z"/>
			
				<linearGradient id="XMLID_5_" gradientUnits="userSpaceOnUse" x1="9.999847e-02" y1="64" x2="9.999847e-02" y2="-1.078661e-09" gradientTransform="matrix(1 0 0 -1 0 64)">
				<stop  offset="0" style="stop-color:#DCDCDB"/>
				<stop  offset="1" style="stop-color:#CBCACA"/>
			</linearGradient>
			<path id="XMLID_11_" class="st1" d="M24.1,0.8c4,0,7.2,3.3,7.2,7.2v48c0,4-3.3,7.2-7.2,7.2h-48c-4,0-7.3-3.3-7.3-7.2V8
				c0-4,3.3-7.2,7.3-7.2L24.1,0.8 M24.1,0h-48c-4.4,0-8,3.6-8,8v48c0,4.4,3.6,8,8,8h48c4.4,0,8-3.6,8-8V8C32.1,3.6,28.5,0,24.1,0
				L24.1,0z"/>
		</g>
		<g id="XMLID_680_">
			<g id="XMLID_50_">
				
					<linearGradient id="XMLID_7_" gradientUnits="userSpaceOnUse" x1="-9.9068" y1="18.0199" x2="-9.9068" y2="47.0199" gradientTransform="matrix(1 0 0 -1 10.4068 63.5199)">
					<stop  offset="0" style="stop-color:#F48C32"/>
					<stop  offset="1" style="stop-color:#F69C36"/>
				</linearGradient>
				<path id="XMLID_51_" class="st2" d="M22.2,42.5c-0.8,0-1.3-0.7-1.3-1.5v-9.8h2v-2.8h-2v-2.8v-1.3c-0.3,0.3-0.7,0.5-1.1,0.7
					c-0.7,0.4-1.5,0.5-2.2,0.6v2.7h-2v2.8h2v10.6c0,2.5,1.2,3.8,3.8,3.8c0.9,0,1.3-0.2,1.8-0.3v-2.7C23.2,42.5,22.2,42.5,22.2,42.5z
					 M-14.6,16.5h-7.6v28.7h7.6c5.2,0,8.1-2.4,8.1-8.3V24.8C-6.5,18.9-9.5,16.5-14.6,16.5z M-9.8,37.4c0,3-2.2,4.5-4.8,4.5H-19V19.8
					h4.3c2.7,0,4.8,1.5,4.8,4.5v13.1H-9.8z M8.8,41.3L8.8,41.3c-0.3-1.8-0.7-3.5-1.1-5.4L6,28.4H3.2l-1.8,7.7
					c-0.4,1.6-0.7,3.5-1,5.2H0.3c-0.2-1.7-2.7-12.9-2.7-12.9h-3.3l4.2,16.8h3.2l1.7-6.9c0.4-1.6,0.8-3.2,1-5.2c0,0,0.6,3.5,1,5.1
					L7,45.1h3.2l4.7-16.8h-3.3C11.5,28.4,8.9,39.6,8.8,41.3z"/>
			</g>
		</g>
	</g>
	<g>
		<path id="XMLID_607_" class="st3" d="M45.9,19.1h6.9c4.6,0,6.9,2,6.9,7.1v9.5c0,5.1-2.2,8.3-6.9,8.3h-6.9V19.1z M48.4,41.7h3.8
			c3.8,0,5-3.1,5-5.9v-9.5c0-2.9-1.2-4.7-5-4.7h-3.8V41.7z"/>
		<g id="XMLID_1_">
			<path id="XMLID_2_" class="st3" d="M64.8,26.6l2.3,10c0.2,0.7,0.3,1.3,0.4,1.9c0.1,0.6,0.2,1.1,0.3,1.7h0.1
				c0.1-0.5,0.2-1.1,0.3-1.7s0.3-1.2,0.4-1.9l2.1-10h2.7l-2.8,11.2c-0.3,1.1-0.5,2.1-0.8,3.2c-0.3,1.1-0.6,2.1-1,3
				c-0.3,1-0.7,1.9-1.1,2.7s-0.9,1.6-1.4,2.3c-0.6,0.8-1.2,1.4-1.8,1.8s-1,0.7-1.3,0.8l-1-2.3c0.4-0.2,0.8-0.5,1.2-0.9
				s0.8-0.8,1.2-1.3c0.4-0.5,0.7-1,1-1.5s0.5-1,0.6-1.4c0.1-0.3,0.2-0.6,0.2-0.9c0-0.1,0-0.2,0-0.3s0-0.2-0.1-0.3l-4.4-16.1H64.8z"
				/>
			<path id="XMLID_4_" class="st3" d="M75.8,31.1c0-0.5,0-1,0-1.4s0-0.8,0-1.1c0-0.3,0-0.7-0.1-1c0-0.3,0-0.6,0-1h2.4l0.1,2.1h0.1
				c0.4-0.7,0.9-1.3,1.6-1.7c0.7-0.4,1.5-0.7,2.4-0.7c0.6,0,1.2,0.1,1.7,0.3c0.5,0.2,1,0.6,1.3,1.1c0.4,0.5,0.7,1.1,0.9,1.9
				s0.3,1.7,0.3,2.7V44h-2.8V32.8c0-0.5,0-1-0.1-1.5s-0.2-0.9-0.4-1.3c-0.2-0.4-0.4-0.7-0.7-0.9c-0.3-0.2-0.7-0.4-1.2-0.4
				c-0.6,0-1.1,0.2-1.6,0.7s-0.8,1.2-1,2.1c-0.1,0.4-0.1,0.9-0.1,1.5v11h-2.8C75.8,44,75.8,31.1,75.8,31.1z"/>
			<path id="XMLID_6_" class="st3" d="M99.6,40.1c0,0.7,0,1.4,0,2.1c0,0.7,0.1,1.3,0.2,1.9h-2.5l-0.2-1.8H97
				c-0.4,0.7-0.9,1.2-1.5,1.6c-0.6,0.4-1.3,0.6-2,0.6c-1.2,0-2.2-0.5-3-1.3c-0.8-0.9-1.2-2.1-1.2-3.6c0-1.1,0.2-2.1,0.6-2.8
				s1-1.4,1.6-2c0.7-0.5,1.5-0.9,2.4-1.2s1.8-0.4,2.8-0.4v-0.5c0-1.2-0.2-2.1-0.6-2.9c-0.4-0.7-1.1-1.1-2.2-1.1s-2,0.3-2.9,0.9
				l-0.6-1.9c0.4-0.3,0.9-0.5,1.7-0.8c0.7-0.3,1.5-0.4,2.4-0.4c1.8,0,3,0.5,3.8,1.6s1.2,2.6,1.2,4.6v7.4H99.6z M96.9,35
				c-0.4,0-0.8,0-1.3,0.1s-1.1,0.2-1.6,0.5s-1,0.7-1.3,1.2c-0.4,0.6-0.5,1.3-0.5,2.2c0,0.6,0.1,1.1,0.2,1.5s0.3,0.7,0.5,1
				c0.2,0.2,0.4,0.4,0.7,0.5c0.3,0.1,0.5,0.2,0.7,0.2c0.6,0,1.2-0.2,1.6-0.7c0.5-0.4,0.8-1.1,0.9-2c0.1-0.3,0.1-0.6,0.1-1L96.9,35
				L96.9,35z"/>
			<path id="XMLID_10_" class="st3" d="M103.5,31.1c0-0.5,0-1,0-1.4s0-0.8,0-1.1c0-0.3,0-0.7-0.1-1c0-0.3,0-0.6,0-1h2.4l0.1,2.1h0.1
				c0.4-0.7,0.9-1.3,1.5-1.7c0.6-0.5,1.4-0.7,2.3-0.7c0.8,0,1.5,0.2,2.2,0.6c0.6,0.4,1.1,1.1,1.5,2h0.1c0.2-0.4,0.5-0.8,0.8-1.2
				c0.3-0.3,0.6-0.6,0.9-0.8c0.7-0.4,1.5-0.6,2.4-0.6c0.6,0,1.2,0.1,1.7,0.3c0.5,0.2,0.9,0.6,1.3,1.1c0.4,0.5,0.7,1.1,0.9,1.9
				s0.3,1.7,0.3,2.8V44h-2.8V33.1c0-0.6,0-1.1-0.1-1.7c-0.1-0.5-0.2-1-0.3-1.4c-0.2-0.4-0.4-0.8-0.7-1c-0.3-0.3-0.7-0.4-1.3-0.4
				s-1.1,0.2-1.6,0.7s-0.8,1.1-1,1.9c0,0.2-0.1,0.5-0.1,0.7c0,0.3,0,0.5,0,0.8V44h-2.8V32.6c0-0.5,0-1-0.1-1.4
				c-0.1-0.5-0.2-0.9-0.3-1.3c-0.2-0.4-0.4-0.7-0.7-0.9c-0.3-0.2-0.7-0.3-1.2-0.3c-0.6,0-1.1,0.2-1.6,0.7s-0.8,1.2-1,2.1
				c-0.1,0.4-0.1,0.9-0.1,1.5v11h-2.8V31.1H103.5z"/>
			<path id="XMLID_16_" class="st3" d="M127.1,23.9c-0.5,0-0.8-0.2-1.1-0.5s-0.5-0.8-0.5-1.3c0-0.6,0.2-1,0.5-1.3s0.7-0.5,1.2-0.5
				s0.9,0.2,1.2,0.5c0.3,0.3,0.4,0.8,0.4,1.3c0,0.6-0.1,1-0.4,1.3C128.1,23.7,127.7,23.9,127.1,23.9L127.1,23.9z M125.8,44V26.6h2.8
				V44H125.8z"/>
			<path id="XMLID_19_" class="st3" d="M140.9,43.6c-0.3,0.2-0.7,0.3-1.2,0.5c-0.5,0.1-1.1,0.2-1.7,0.2c-1.9,0-3.5-0.7-4.6-2.2
				s-1.7-3.7-1.7-6.6c0-1.2,0.2-2.4,0.5-3.5c0.3-1.1,0.8-2.1,1.3-2.9c0.6-0.8,1.3-1.5,2.2-1.9c0.9-0.5,1.8-0.7,2.9-0.7
				c0.5,0,0.9,0.1,1.4,0.2c0.4,0.1,0.8,0.2,1.1,0.4l-0.5,2.2c-0.2-0.1-0.5-0.2-0.8-0.3c-0.3-0.1-0.7-0.2-1.2-0.2
				c-0.7,0-1.3,0.2-1.8,0.6s-0.9,0.9-1.3,1.5c-0.3,0.6-0.6,1.3-0.7,2.1c-0.2,0.8-0.2,1.6-0.2,2.5c0,2,0.4,3.6,1.1,4.8
				c0.7,1.2,1.7,1.7,3,1.7c0.7,0,1.4-0.2,2-0.5L140.9,43.6z"/>
			<path id="XMLID_21_" class="st3" d="M152.4,44l-4.6-24.3h2.8l2.1,11.7c0.3,1.5,0.5,3,0.7,4.4c0.2,1.4,0.4,2.8,0.5,4.4h0.1
				c0.2-1.5,0.4-3,0.6-4.4s0.5-2.8,0.8-4.4l2.2-11.7h2.3l2.3,11.4c0.3,1.4,0.5,2.9,0.8,4.3c0.3,1.4,0.5,3,0.6,4.7h0.1
				c0.2-1.8,0.4-3.3,0.6-4.7s0.4-2.8,0.6-4.2l2-11.6h2.7L165.1,44h-2.7l-2.3-11.8c-0.3-1.3-0.5-2.6-0.7-3.9c-0.2-1.3-0.4-2.7-0.6-4
				h-0.1c-0.3,2.7-0.8,5.4-1.3,8.1L155,44H152.4z"/>
			<path id="XMLID_23_" class="st3" d="M174.5,35.6c0,1.3,0.1,2.4,0.4,3.3s0.6,1.5,1,2s0.8,0.8,1.3,1s1,0.3,1.5,0.3
				c0.6,0,1.2-0.1,1.7-0.2c0.5-0.1,0.9-0.3,1.2-0.5l0.5,2c-0.5,0.3-1.1,0.5-1.8,0.6c-0.7,0.1-1.4,0.2-2.1,0.2
				c-2.1,0-3.7-0.8-4.7-2.4c-1.1-1.6-1.6-3.7-1.6-6.4c0-1.4,0.1-2.7,0.4-3.8c0.3-1.1,0.7-2.1,1.2-2.9s1.1-1.4,1.9-1.8
				c0.7-0.4,1.5-0.6,2.4-0.6s1.6,0.2,2.3,0.6c0.6,0.4,1.1,1,1.5,1.7s0.7,1.5,0.9,2.4c0.2,0.9,0.3,1.9,0.3,2.9c0,0.3,0,0.6,0,0.9
				c0,0.3,0,0.5-0.1,0.7H174.5z M179.9,33.5c0-0.9-0.1-1.6-0.2-2.2c-0.1-0.6-0.3-1.2-0.6-1.6c-0.2-0.4-0.5-0.7-0.8-0.9
				c-0.3-0.2-0.6-0.3-1-0.3c-0.5,0-0.9,0.1-1.2,0.4c-0.3,0.3-0.6,0.7-0.9,1.2c-0.2,0.5-0.4,1-0.6,1.6c-0.1,0.6-0.2,1.2-0.2,1.8
				H179.9z"/>
			<path id="XMLID_26_" class="st3" d="M185.5,19.1h2.8v9.5h0.1c0.5-0.9,1-1.5,1.6-1.8s1.3-0.5,2.1-0.5c1.4,0,2.5,0.8,3.4,2.2
				c0.9,1.5,1.3,3.7,1.3,6.6c0,1.6-0.2,3-0.5,4.1c-0.3,1.2-0.7,2.1-1.2,2.9c-0.5,0.8-1,1.3-1.7,1.7c-0.6,0.4-1.3,0.5-1.9,0.5
				c-0.9,0-1.7-0.2-2.2-0.7s-0.9-1.1-1.3-1.8h-0.1l-0.2,2.3h-2.4c0-0.2,0-0.5,0-0.9s0-0.7,0.1-1.1c0-0.4,0-0.8,0-1.1s0-0.7,0-1
				L185.5,19.1L185.5,19.1z M188.3,37.9c0,0.4,0,0.8,0.1,1.1c0.2,0.6,0.4,1.2,0.6,1.6c0.2,0.4,0.4,0.7,0.7,0.9
				c0.3,0.2,0.5,0.4,0.7,0.4c0.2,0.1,0.4,0.1,0.6,0.1c0.6,0,1-0.2,1.4-0.5s0.7-0.8,0.9-1.4c0.2-0.6,0.4-1.3,0.5-2.1s0.2-1.7,0.2-2.6
				c0-0.9-0.1-1.7-0.2-2.5s-0.3-1.5-0.5-2.1c-0.2-0.6-0.6-1.1-1-1.4c-0.4-0.4-0.9-0.5-1.4-0.5c-0.3,0-0.6,0.1-0.9,0.3
				c-0.3,0.2-0.5,0.4-0.8,0.7c-0.2,0.3-0.4,0.6-0.6,1s-0.3,0.8-0.3,1.1c0,0.2,0,0.4-0.1,0.6c0,0.2,0,0.4,0,0.6v4.7H188.3z"/>
			<path id="XMLID_29_" class="st3" d="M206.8,22.3h-4.4v-2.5H214v2.5h-4.4V44h-2.8L206.8,22.3L206.8,22.3z"/>
			<path id="XMLID_31_" class="st3" d="M219.9,44l-4.6-24.3h2.8l2.1,11.7c0.3,1.5,0.5,3,0.7,4.4c0.2,1.4,0.4,2.8,0.5,4.4h0.1
				c0.2-1.5,0.4-3,0.6-4.4s0.5-2.8,0.8-4.4l2.2-11.7h2.3l2.3,11.4c0.3,1.4,0.5,2.9,0.8,4.3s0.5,3,0.6,4.7h0.1
				c0.2-1.8,0.4-3.3,0.6-4.7s0.4-2.8,0.6-4.2l2-11.6h2.7L232.6,44h-2.7l-2.3-11.8c-0.3-1.3-0.5-2.6-0.7-3.9s-0.4-2.7-0.6-4h-0.1
				c-0.3,2.7-0.8,5.4-1.3,8.1L222.5,44H219.9z"/>
			<path id="XMLID_33_" class="st3" d="M243.2,36.8l-1.6,7.3h-2.7l5.5-24.3h3.1l5.4,24.2h-2.7l-1.6-7.3L243.2,36.8L243.2,36.8z
				 M248.2,34.5l-1.3-6.2c-0.2-0.9-0.4-1.8-0.5-2.7c-0.2-1-0.3-1.9-0.5-2.8h-0.1c-0.1,0.9-0.3,1.9-0.5,2.8c-0.2,1-0.3,1.9-0.5,2.7
				l-1.3,6.1h4.7V34.5z"/>
			<path id="XMLID_37_" class="st3" d="M258.7,19.8V44h-2.8V19.8H258.7z"/>
			<path id="XMLID_39_" class="st3" d="M263.1,44V19.8h2.6l4.5,11.4c0.5,1.3,1,2.7,1.6,4.2s1.1,2.9,1.5,4.2h0.1c0-1-0.1-1.9-0.1-2.8
				c0-0.9-0.1-1.8-0.1-2.7s0-1.8-0.1-2.7c0-0.9,0-1.9,0-3v-8.7h2.5V44h-2.7l-4.6-11.7c-0.5-1.2-1-2.5-1.5-3.9s-1-2.8-1.4-4.3h-0.1
				c0,0.8,0.1,1.6,0.1,2.4s0.1,1.7,0.1,2.6s0,1.9,0.1,3c0,1.1,0,2.2,0,3.5V44H263.1z"/>
		</g>
	</g>
</g>
</svg>
